<?xml version="1.0" encoding="utf-8"?>
<!-- Generator: Adobe Illustrator 27.2.0, SVG Export Plug-In . SVG Version: 6.00 Build 0)  -->
<svg version="1.1" id="Layer_1" xmlns="http://www.w3.org/2000/svg" xmlns:xlink="http://www.w3.org/1999/xlink" x="0px" y="0px"
	 viewBox="0 0 865.8 888" style="enable-background:new 0 0 865.8 888;" xml:space="preserve">
<style type="text/css">
	.st0{fill:#FFFFFF;}
</style>
<path class="st0" d="M816.7,554.6c-15.1-17-33.2-31.8-53.4-43.7c7.1-8.6,21.5-42.9,22.9-48.4c4.3-17.2,4.7-35.4,1.9-52.9
	c-10.7-67.1-71-97-123.3-129.1c-37.6-23.1-75-56.6-87.7-100.3c-8.1-27.7-3-57.6,10.6-82.6c7-12.9,16.3-24.7,27.3-34.4
	c9.6-8.5,21.6-13.7,25.1-27.2C652.9-13.3,546,1,521.8,5.1c-83.3,14.3-158.7,62.8-221.7,117.1c-28.4,24.5-57.1,48.5-79.2,79.1
	c-10.8,15-20.1,31.2-26.4,48.6c-1.6,4.4-11.4,54.5-8.9,54c-12.4,2.2-24.4,6.1-35.9,11.6c-47,22.7-78.9,72.2-89.3,122.3
	c-7.8,37.8-3,80.7,20.6,112.3c-1.4-1.8-24.4,17.3-26.7,19.3C12.5,606-8.4,664.8,3.1,719.5c5.6,26.7,18.7,51.5,37.2,71.6
	c48.1,52.2,122.3,70.2,189.6,81.7c105,18,214.7,18.5,320.7,9.4c102.2-8.7,231.4-25.4,290.1-120.5C884.7,690.7,866.9,611,816.7,554.6
	z M67.5,632c1-1.4,2-2.8,3-4.2C69.4,629.2,68.4,630.6,67.5,632z M114.6,510.8c0.7,1.2,1.4,2.4,2.1,3.5
	C115.9,513.2,115.2,512,114.6,510.8z M119,517.8c0.8,1.1,1.7,2.2,2.5,3.4C120.6,520.1,119.8,519,119,517.8z M156.7,371
	c1.8-1.3,3.6-2.6,5.5-3.8C160.3,368.4,158.5,369.7,156.7,371z M244.2,534c0.2,0.1,0.4,0.2,0.6,0.3c0.6,0.3,1.2,0.6,1.8,1
	C245.8,534.9,245,534.4,244.2,534z M247,535.5c0.4,0.2,0.7,0.5,1,0.7C247.6,536,247.3,535.8,247,535.5z M259,360.9
	c-0.2-0.1-0.4-0.1-0.5-0.2c1.1,0.4,2.2,0.7,3.3,1.1C260.8,361.5,259.9,361.2,259,360.9z M297.3,373.1c-0.6-0.2-1.2-0.3-1.8-0.5
	C296.1,372.8,296.7,373,297.3,373.1c0.6,0.2,1.2,0.3,1.8,0.5C298.5,373.5,297.9,373.3,297.3,373.1z M513.1,57.1
	C513.1,57.1,513.1,57.1,513.1,57.1c-0.5,0.1-1,0.3-1.5,0.4C512.1,57.3,512.6,57.2,513.1,57.1z M478,68c-2.8,1.1-5.6,2.2-8.4,3.3
	c0.1,0,0.1,0,0.2-0.1c-0.1,0-0.1,0.1-0.2,0.1c0,0,0,0-0.1,0C472.2,70.1,475.1,69,478,68z M475.2,69.1c-1.8,0.7-3.6,1.4-5.4,2.1
	C471.6,70.4,473.4,69.8,475.2,69.1z M459.8,75.4c0,0,0.1,0,0.1-0.1c0.4-0.2,0.7-0.3,1.1-0.5c0,0,0,0,0,0c0.4-0.2,0.8-0.3,1.3-0.5
	c-0.8,0.3-1.5,0.7-2.3,1C460,75.3,459.9,75.4,459.8,75.4c-0.1,0.1-0.3,0.1-0.5,0.2c-0.2,0.1-0.5,0.2-0.8,0.3
	C459,75.7,459.4,75.5,459.8,75.4z M316.4,373.6C316.4,373.5,316.5,373.5,316.4,373.6c0.1,0,0.2-0.1,0.2-0.1
	C316.6,373.5,316.5,373.5,316.4,373.6z M321.9,507.1c0.6-7.9,3.3-15.7,8.3-21.9c19.9-24.7,57.7-11.4,63.8,17.8
	c4.6,21.9-10,47.3-33.5,49.1C335.4,554,320.2,529.7,321.9,507.1z M538.2,665.3c-6.5,11-20.4,17.4-31.3,23
	c-41.1,21.2-92.6,21.1-134.3,1.5c-6.4-3-13.9-7-20.1-12.2c-8.6-7.1-15.3-17.8-11.2-29.1c4-10.3,15-19.1,26.4-17.3
	c15.2,2.4,32,15.1,47.1,19.2c15.4,4.1,31.9,4.4,47.4,0.6c17.3-4.3,27.9-14.6,44.5-20.1c5.6-1.9,11.7-2.6,17.4-1
	C538.5,633.9,545.7,652.5,538.2,665.3z M525.2,552.1c-25.1,1.9-40.3-22.4-38.6-45c0.6-7.9,3.3-15.7,8.3-21.9
	c19.9-24.7,57.7-11.4,63.8,17.8C563.3,524.9,548.7,550.3,525.2,552.1z M559.8,50.1c-3,0.2-5.9,0.4-8.9,0.7
	C553.9,50.5,556.8,50.3,559.8,50.1C559.8,50.1,559.8,50.1,559.8,50.1z M579.8,830c-0.1,0-0.2,0-0.3,0c-1.5,0.2-3.1,0.4-4.6,0.6
	c-0.3,0-0.7,0.1-1,0.1c0.6-0.1,1.2-0.2,1.9-0.2c1.9-0.2,3.7-0.5,5.6-0.8C580.9,829.9,580.3,830,579.8,830z M591.3,828.4
	c3.9-0.6,7.7-1.1,11.5-1.7C599,827.3,595.2,827.9,591.3,828.4z M623.9,490.3C623.9,490.3,623.9,490.3,623.9,490.3
	C623.9,490.3,623.9,490.3,623.9,490.3c-0.1,0.2-0.2,0.4-0.2,0.6C623.8,490.7,623.8,490.5,623.9,490.3z M624.6,510.2
	c-0.2-0.4-0.5-0.9-0.7-1.4c0,0,0-0.1,0-0.1c-0.2-0.5-0.4-1-0.6-1.6c0.4,1.1,0.9,2.1,1.4,3.2C624.7,510.3,624.6,510.3,624.6,510.2z
	 M626.6,513.5c0.7,0.9,1.4,1.8,2.2,2.7C628,515.4,627.3,514.5,626.6,513.5z M630.9,518.2c0,0-0.1-0.1-0.1-0.1
	c-0.5-0.4-0.9-0.8-1.3-1.3c0,0,0,0,0.1,0.1c0.2,0.2,0.4,0.4,0.6,0.6c0.4,0.4,0.8,0.8,1.2,1.1C631.2,518.5,631.1,518.3,630.9,518.2z
	 M632.9,519.8c-0.2-0.2-0.4-0.3-0.6-0.5c0.3,0.2,0.6,0.5,0.9,0.7C633.1,520,633,519.9,632.9,519.8z M644,525.8
	C644,525.8,644,525.8,644,525.8C644,525.8,644,525.8,644,525.8C644,525.8,644,525.9,644,525.8C644,525.9,644,525.9,644,525.8z
	 M644.9,526.2C644.9,526.2,644.9,526.2,644.9,526.2c-0.1,0-0.1,0-0.1,0C644.9,526.2,644.9,526.2,644.9,526.2
	C645,526.3,644.9,526.3,644.9,526.2z M648.5,527.5c0.3,0.1,0.6,0.2,0.9,0.3C649.1,527.7,648.8,527.6,648.5,527.5z M661.6,475.3
	c0.1,0,0.2,0,0.4,0c0,0,0.1,0,0.2,0c0,0,0.1,0,0.1,0.1C662.1,475.4,661.8,475.3,661.6,475.3z M663.6,531.7c0.4,0,0.8,0.1,1.1,0.2
	C664.3,531.9,663.9,531.8,663.6,531.7z M666.3,476.2c-0.2,0-0.4-0.1-0.5-0.1c-0.3-0.1-0.7-0.2-1-0.3c0.6,0.2,1.3,0.3,2,0.5
	C666.6,476.3,666.5,476.2,666.3,476.2z M667.4,476.5c-0.2-0.1-0.4-0.1-0.5-0.1c0.1,0,0.2,0,0.4,0.1c0,0,0,0,0.1,0
	c0.1,0,0.2,0,0.3,0.1C667.6,476.5,667.5,476.5,667.4,476.5z M668.9,532.8c0.2,0,0.4,0.1,0.6,0.1
	C669.3,532.9,669.1,532.9,668.9,532.8z M683.2,811.7c0.5-0.1,1-0.2,1.6-0.4c0.1,0,0.1,0,0.2,0c1.9-0.5,3.8-0.9,5.7-1.4
	c0.1,0,0.1,0,0.2,0c1.2-0.3,2.3-0.6,3.5-0.8C690.6,810,686.9,810.9,683.2,811.7z M694.6,808.9c0.2,0,0.3-0.1,0.5-0.1
	c2.4-0.7,4.9-1.3,7.3-2C699.8,807.5,697.2,808.2,694.6,808.9z"/>
</svg>
